<svg width="50" height="50" viewBox="0 0 50 50" fill="none" xmlns="http://www.w3.org/2000/svg">
<path d="M15.4924 32.6622C16.06 33.9248 17.0755 34.9407 18.3379 35.5087C17.0843 36.0755 16.075 37.0845 15.5076 38.3378C14.94 37.0752 13.9245 36.0593 12.6621 35.4913C13.9157 34.9245 14.925 33.9155 15.4924 32.6622Z" stroke="white"/>
<path d="M31 32.931C29.8021 29.7367 27.2633 27.1979 24.069 26C27.2633 24.8021 29.8021 22.2633 31 19.069C32.1979 22.2633 34.7367 24.8021 37.931 26C34.7367 27.1979 32.1979 29.7367 31 32.931Z" stroke="white" stroke-width="1.5"/>
<path d="M14.5 12.1948C15.3241 14.127 16.873 15.6759 18.8052 16.5C16.873 17.3241 15.3241 18.873 14.5 20.8052C13.6759 18.873 12.127 17.3241 10.1948 16.5C12.127 15.6759 13.6759 14.127 14.5 12.1948Z" stroke="white" stroke-width="1.3"/>
</svg>
